<svg xmlns="http://www.w3.org/2000/svg" width="26" height="22" viewBox="0 0 26 22">
  <path fill="#BFA673" d="M3.81605566 18.0012533C3.77264989 18.3257558 3.75 18.6598279 3.75 19.0009467 3.75 19.3417124 3.77260302 19.6754459 3.81592092 19.9996323L0 19.9999739 0 18.0019195zM26 18.0019195L26 19.9999739 12.1840791 19.9996323C12.227397 19.6754459 12.25 19.3417124 12.25 19.0009467 12.25 18.6598279 12.2273501 18.3257558 12.1839443 18.0012533L26 18.0019195zM13.8160557 10.0012533C13.7726499 10.3257558 13.75 10.6598279 13.75 11.0009467 13.75 11.3417124 13.772603 11.6754459 13.8159209 11.9996323L0 11.9999739 0 10.0019195zM26 10.0019195L26 11.9999739 22.1840791 11.9996323C22.227397 11.6754459 22.25 11.3417124 22.25 11.0009467 22.25 10.6598279 22.2273501 10.3257558 22.1839443 10.0012533L26 10.0019195zM6.81605566 2.00125332C6.77264989 2.32575584 6.75 2.65982793 6.75 3.00094672 6.75 3.34171238 6.77260302 3.67544593 6.81592092 3.99963232L0 3.99997391 0 2.00191953zM26 2.00191953L26 3.99997391 15.1840791 3.99963232C15.227397 3.67544593 15.25 3.34171238 15.25 3.00094672 15.25 2.65982793 15.2273501 2.32575584 15.1839443 2.00125332L26 2.00191953zM8 16C9.65685425 16 11 17.3431458 11 19 11 20.6568542 9.65685425 22 8 22 6.34314575 22 5 20.6568542 5 19 5 17.3431458 6.34314575 16 8 16zM8 17.6363636C7.24688443 17.6363636 6.63636364 18.2468844 6.63636364 19 6.63636364 19.7531156 7.24688443 20.3636364 8 20.3636364 8.75311557 20.3636364 9.36363636 19.7531156 9.36363636 19 9.36363636 18.2468844 8.75311557 17.6363636 8 17.6363636zM18 8C19.6568542 8 21 9.34314575 21 11 21 12.6568542 19.6568542 14 18 14 16.3431458 14 15 12.6568542 15 11 15 9.34314575 16.3431458 8 18 8zM18 9.63636364C17.2468844 9.63636364 16.6363636 10.2468844 16.6363636 11 16.6363636 11.7531156 17.2468844 12.3636364 18 12.3636364 18.7531156 12.3636364 19.3636364 11.7531156 19.3636364 11 19.3636364 10.2468844 18.7531156 9.63636364 18 9.63636364zM11 0C12.6568542 0 14 1.34314575 14 3 14 4.65685425 12.6568542 6 11 6 9.34314575 6 8 4.65685425 8 3 8 1.34314575 9.34314575 0 11 0zM11 1.63636364C10.2468844 1.63636364 9.63636364 2.24688443 9.63636364 3 9.63636364 3.75311557 10.2468844 4.36363636 11 4.36363636 11.7531156 4.36363636 12.3636364 3.75311557 12.3636364 3 12.3636364 2.24688443 11.7531156 1.63636364 11 1.63636364z"/>
</svg>
